<mxfile host="app.diagrams.net" modified="2023-06-21T15:07:15.042Z" agent="Mozilla/5.0 (X11; Linux x86_64) AppleWebKit/537.36 (KHTML, like Gecko) Chrome/114.0.0.0 Safari/537.36" etag="V3ZUJ7hcfzf7IZrmxufy" version="21.5.0" type="github">
  <diagram name="Page-1" id="JPqHWe5NCPTTdfH1C98E">
    <mxGraphModel dx="1195" dy="649" grid="1" gridSize="10" guides="1" tooltips="1" connect="1" arrows="1" fold="1" page="1" pageScale="1" pageWidth="827" pageHeight="1169" background="#ffffff" math="1" shadow="0">
      <root>
        <mxCell id="0" />
        <mxCell id="1" parent="0" />
        <mxCell id="hcC1AArkkbN6AmzWhMLO-1" value="" style="rounded=0;whiteSpace=wrap;html=1;strokeColor=#021ff7;fillColor=none;strokeWidth=3;" vertex="1" parent="1">
          <mxGeometry x="30" y="200" width="60" height="110" as="geometry" />
        </mxCell>
        <mxCell id="hcC1AArkkbN6AmzWhMLO-2" value="" style="rounded=0;whiteSpace=wrap;html=1;strokeColor=#021ff7;fillColor=none;strokeWidth=3;" vertex="1" parent="1">
          <mxGeometry x="130" y="200" width="60" height="110" as="geometry" />
        </mxCell>
        <mxCell id="hcC1AArkkbN6AmzWhMLO-6" value="" style="rounded=0;whiteSpace=wrap;html=1;strokeColor=#021ff7;fillColor=none;strokeWidth=3;" vertex="1" parent="1">
          <mxGeometry x="690" y="200" width="60" height="110" as="geometry" />
        </mxCell>
        <mxCell id="hcC1AArkkbN6AmzWhMLO-9" value="" style="endArrow=none;dashed=1;html=1;dashPattern=1 3;strokeWidth=3;rounded=0;strokeColor=#000000;" edge="1" parent="1">
          <mxGeometry width="50" height="50" relative="1" as="geometry">
            <mxPoint x="420" y="270" as="sourcePoint" />
            <mxPoint x="670" y="270" as="targetPoint" />
            <Array as="points" />
          </mxGeometry>
        </mxCell>
        <mxCell id="hcC1AArkkbN6AmzWhMLO-11" value="" style="sketch=0;outlineConnect=0;fontColor=#333333;fillColor=#0f0f0f;strokeColor=#666666;dashed=0;verticalLabelPosition=bottom;verticalAlign=top;align=center;html=1;fontSize=12;fontStyle=0;aspect=fixed;pointerEvents=1;shape=mxgraph.aws4.user;strokeWidth=3;" vertex="1" parent="1">
          <mxGeometry x="351" y="657" width="78" height="78" as="geometry" />
        </mxCell>
        <mxCell id="hcC1AArkkbN6AmzWhMLO-15" value="" style="endArrow=classic;html=1;rounded=0;exitX=0.9;exitY=0;exitDx=0;exitDy=0;exitPerimeter=0;entryX=0.5;entryY=1;entryDx=0;entryDy=0;strokeColor=#026969;strokeWidth=3;" edge="1" parent="1" source="hcC1AArkkbN6AmzWhMLO-18" target="hcC1AArkkbN6AmzWhMLO-6">
          <mxGeometry width="50" height="50" relative="1" as="geometry">
            <mxPoint x="440" y="530" as="sourcePoint" />
            <mxPoint x="650" y="330" as="targetPoint" />
          </mxGeometry>
        </mxCell>
        <mxCell id="hcC1AArkkbN6AmzWhMLO-18" value="" style="fontColor=#0066CC;verticalAlign=top;verticalLabelPosition=bottom;labelPosition=center;align=center;html=1;outlineConnect=0;fillColor=#CCCCCC;strokeColor=#6881B3;gradientColor=none;gradientDirection=north;strokeWidth=3;shape=mxgraph.networks.pc;" vertex="1" parent="1">
          <mxGeometry x="340" y="540" width="100" height="70" as="geometry" />
        </mxCell>
        <mxCell id="hcC1AArkkbN6AmzWhMLO-20" value="" style="endArrow=classic;html=1;rounded=0;entryX=0.5;entryY=1;entryDx=0;entryDy=0;strokeColor=#026969;strokeWidth=3;" edge="1" parent="1" source="hcC1AArkkbN6AmzWhMLO-18" target="hcC1AArkkbN6AmzWhMLO-2">
          <mxGeometry width="50" height="50" relative="1" as="geometry">
            <mxPoint x="330" y="530" as="sourcePoint" />
            <mxPoint x="170" y="330" as="targetPoint" />
          </mxGeometry>
        </mxCell>
        <mxCell id="hcC1AArkkbN6AmzWhMLO-21" value="" style="endArrow=classic;html=1;rounded=0;entryX=0.5;entryY=1;entryDx=0;entryDy=0;strokeColor=#026969;strokeWidth=3;" edge="1" parent="1" source="hcC1AArkkbN6AmzWhMLO-18" target="hcC1AArkkbN6AmzWhMLO-1">
          <mxGeometry width="50" height="50" relative="1" as="geometry">
            <mxPoint x="310" y="560" as="sourcePoint" />
            <mxPoint x="70" y="330" as="targetPoint" />
          </mxGeometry>
        </mxCell>
        <mxCell id="hcC1AArkkbN6AmzWhMLO-23" value="" style="endArrow=classic;html=1;rounded=0;strokeWidth=3;strokeColor=#026969;" edge="1" parent="1" source="hcC1AArkkbN6AmzWhMLO-11" target="hcC1AArkkbN6AmzWhMLO-18">
          <mxGeometry width="50" height="50" relative="1" as="geometry">
            <mxPoint x="396" y="690" as="sourcePoint" />
            <mxPoint x="396" y="630" as="targetPoint" />
          </mxGeometry>
        </mxCell>
        <mxCell id="hcC1AArkkbN6AmzWhMLO-26" value="" style="rounded=0;whiteSpace=wrap;html=1;strokeColor=#021ff7;fillColor=none;strokeWidth=3;" vertex="1" parent="1">
          <mxGeometry x="230" y="200" width="60" height="110" as="geometry" />
        </mxCell>
        <mxCell id="hcC1AArkkbN6AmzWhMLO-27" value="" style="rounded=0;whiteSpace=wrap;html=1;strokeColor=#021ff7;fillColor=none;strokeWidth=3;" vertex="1" parent="1">
          <mxGeometry x="330" y="200" width="60" height="110" as="geometry" />
        </mxCell>
        <mxCell id="hcC1AArkkbN6AmzWhMLO-28" value="" style="endArrow=classic;html=1;rounded=0;entryX=0.5;entryY=1;entryDx=0;entryDy=0;strokeColor=#026969;strokeWidth=3;" edge="1" parent="1" source="hcC1AArkkbN6AmzWhMLO-18" target="hcC1AArkkbN6AmzWhMLO-26">
          <mxGeometry width="50" height="50" relative="1" as="geometry">
            <mxPoint x="140" y="500" as="sourcePoint" />
            <mxPoint x="190" y="450" as="targetPoint" />
          </mxGeometry>
        </mxCell>
        <mxCell id="hcC1AArkkbN6AmzWhMLO-29" value="" style="endArrow=classic;html=1;rounded=0;entryX=0.5;entryY=1;entryDx=0;entryDy=0;strokeColor=#026969;strokeWidth=3;" edge="1" parent="1" source="hcC1AArkkbN6AmzWhMLO-18" target="hcC1AArkkbN6AmzWhMLO-27">
          <mxGeometry width="50" height="50" relative="1" as="geometry">
            <mxPoint x="150" y="540" as="sourcePoint" />
            <mxPoint x="200" y="490" as="targetPoint" />
          </mxGeometry>
        </mxCell>
        <mxCell id="hcC1AArkkbN6AmzWhMLO-30" value="" style="rounded=0;whiteSpace=wrap;html=1;dashed=1;fillColor=none;strokeColor=#FF0000;strokeWidth=3;" vertex="1" parent="1">
          <mxGeometry x="210" y="170" width="200" height="155" as="geometry" />
        </mxCell>
        <mxCell id="hcC1AArkkbN6AmzWhMLO-33" value="" style="endArrow=classic;html=1;rounded=0;entryX=0;entryY=0.5;entryDx=0;entryDy=0;exitX=1;exitY=0.5;exitDx=0;exitDy=0;strokeWidth=3;strokeColor=#026969;" edge="1" parent="1" source="hcC1AArkkbN6AmzWhMLO-26" target="hcC1AArkkbN6AmzWhMLO-27">
          <mxGeometry width="50" height="50" relative="1" as="geometry">
            <mxPoint x="90" y="480" as="sourcePoint" />
            <mxPoint x="140" y="430" as="targetPoint" />
          </mxGeometry>
        </mxCell>
        <mxCell id="hcC1AArkkbN6AmzWhMLO-34" value="" style="endArrow=classic;html=1;rounded=0;entryX=1.022;entryY=0.639;entryDx=0;entryDy=0;entryPerimeter=0;exitX=-0.033;exitY=0.636;exitDx=0;exitDy=0;exitPerimeter=0;strokeWidth=3;strokeColor=#026969;" edge="1" parent="1" source="hcC1AArkkbN6AmzWhMLO-27" target="hcC1AArkkbN6AmzWhMLO-26">
          <mxGeometry width="50" height="50" relative="1" as="geometry">
            <mxPoint x="310" y="340" as="sourcePoint" />
            <mxPoint x="310" y="280" as="targetPoint" />
          </mxGeometry>
        </mxCell>
        <mxCell id="hcC1AArkkbN6AmzWhMLO-35" value="&lt;font style=&quot;font-size: 18px;&quot;&gt;DB 1&lt;/font&gt;" style="text;html=1;strokeColor=none;fillColor=none;align=center;verticalAlign=middle;whiteSpace=wrap;rounded=0;fontColor=#005700;strokeWidth=3;fontSize=18;fontStyle=1" vertex="1" parent="1">
          <mxGeometry x="30" y="170" width="60" height="30" as="geometry" />
        </mxCell>
        <mxCell id="hcC1AArkkbN6AmzWhMLO-36" value="DB 2" style="text;html=1;strokeColor=none;fillColor=none;align=center;verticalAlign=middle;whiteSpace=wrap;rounded=0;fontColor=#005700;strokeWidth=3;fontSize=18;fontStyle=1" vertex="1" parent="1">
          <mxGeometry x="130" y="170" width="60" height="30" as="geometry" />
        </mxCell>
        <mxCell id="hcC1AArkkbN6AmzWhMLO-37" value="DB 3" style="text;html=1;strokeColor=none;fillColor=none;align=center;verticalAlign=middle;whiteSpace=wrap;rounded=0;fontColor=#005700;strokeWidth=3;fontSize=18;fontStyle=1" vertex="1" parent="1">
          <mxGeometry x="230" y="170" width="60" height="30" as="geometry" />
        </mxCell>
        <mxCell id="hcC1AArkkbN6AmzWhMLO-38" value="DB 4" style="text;html=1;strokeColor=none;fillColor=none;align=center;verticalAlign=middle;whiteSpace=wrap;rounded=0;fontColor=#005700;strokeWidth=3;fontSize=18;fontStyle=1" vertex="1" parent="1">
          <mxGeometry x="330" y="170" width="60" height="30" as="geometry" />
        </mxCell>
        <mxCell id="hcC1AArkkbN6AmzWhMLO-39" value="DB &lt;span style=&quot;font-size: 18px;&quot;&gt;n&lt;/span&gt;&lt;sub style=&quot;font-size: 18px;&quot;&gt;&lt;span style=&quot;font-size: 18px;&quot;&gt;s&lt;/span&gt;&amp;nbsp;&lt;/sub&gt;" style="text;html=1;strokeColor=none;fillColor=none;align=center;verticalAlign=middle;whiteSpace=wrap;rounded=0;fontColor=#005700;strokeWidth=3;fontSize=18;fontStyle=1" vertex="1" parent="1">
          <mxGeometry x="690" y="170" width="60" height="30" as="geometry" />
        </mxCell>
        <mxCell id="hcC1AArkkbN6AmzWhMLO-40" value="Give me message X&lt;sub style=&quot;font-size: 15px;&quot;&gt;d&lt;/sub&gt;" style="text;html=1;strokeColor=none;fillColor=none;align=center;verticalAlign=middle;whiteSpace=wrap;rounded=0;fontColor=#000000;fontSize=15;fontStyle=1" vertex="1" parent="1">
          <mxGeometry x="324" y="620" width="159" height="30" as="geometry" />
        </mxCell>
        <mxCell id="hcC1AArkkbN6AmzWhMLO-41" value="&lt;sup style=&quot;font-size: 18px;&quot;&gt;&lt;span style=&quot;font-size: 18px;&quot;&gt;Collusion&lt;/span&gt;&lt;br style=&quot;font-size: 18px;&quot;&gt;&lt;/sup&gt;" style="text;html=1;strokeColor=none;fillColor=none;align=center;verticalAlign=middle;whiteSpace=wrap;rounded=0;fontColor=#000000;labelBackgroundColor=none;rotation=0;fontStyle=1;fontSize=18;" vertex="1" parent="1">
          <mxGeometry x="290" y="140" width="60" height="30" as="geometry" />
        </mxCell>
        <mxCell id="hcC1AArkkbN6AmzWhMLO-45" value="$$q^{(d)}_1$$" style="text;html=1;strokeColor=none;fillColor=none;align=center;verticalAlign=middle;whiteSpace=wrap;rounded=0;fontColor=#000000;fontSize=19;rotation=0;" vertex="1" parent="1">
          <mxGeometry x="90" y="370" width="60" height="30" as="geometry" />
        </mxCell>
        <mxCell id="hcC1AArkkbN6AmzWhMLO-50" value="$$q^{(d)}_2$$" style="text;html=1;strokeColor=none;fillColor=none;align=center;verticalAlign=middle;whiteSpace=wrap;rounded=0;fontColor=#000000;fontSize=19;rotation=0;" vertex="1" parent="1">
          <mxGeometry x="170" y="370" width="60" height="30" as="geometry" />
        </mxCell>
        <mxCell id="hcC1AArkkbN6AmzWhMLO-51" value="$$q^{(d)}_3$$" style="text;html=1;strokeColor=none;fillColor=none;align=center;verticalAlign=middle;whiteSpace=wrap;rounded=0;fontColor=#000000;fontSize=19;rotation=0;" vertex="1" parent="1">
          <mxGeometry x="240" y="370" width="60" height="30" as="geometry" />
        </mxCell>
        <mxCell id="hcC1AArkkbN6AmzWhMLO-52" value="$$q^{(d)}_4$$" style="text;html=1;strokeColor=none;fillColor=none;align=center;verticalAlign=middle;whiteSpace=wrap;rounded=0;fontColor=#000000;fontSize=19;rotation=0;" vertex="1" parent="1">
          <mxGeometry x="324" y="370" width="60" height="30" as="geometry" />
        </mxCell>
        <mxCell id="hcC1AArkkbN6AmzWhMLO-53" value="$$q^{(d)}_{n_S}$$" style="text;html=1;strokeColor=none;fillColor=none;align=center;verticalAlign=middle;whiteSpace=wrap;rounded=0;fontColor=#000000;fontSize=19;rotation=0;" vertex="1" parent="1">
          <mxGeometry x="560" y="370" width="60" height="30" as="geometry" />
        </mxCell>
      </root>
    </mxGraphModel>
  </diagram>
</mxfile>
